<mxfile host="Electron" agent="Mozilla/5.0 (Macintosh; Intel Mac OS X 10_15_7) AppleWebKit/537.36 (KHTML, like Gecko) draw.io/24.7.17 Chrome/128.0.6613.36 Electron/32.0.1 Safari/537.36" version="24.7.17">
  <diagram id="Ht1M8jgEwFfnCIfOTk4-" name="Page-1">
    <mxGraphModel dx="1847" dy="1132" grid="1" gridSize="10" guides="1" tooltips="1" connect="1" arrows="1" fold="1" page="1" pageScale="1" pageWidth="827" pageHeight="1169" math="0" shadow="0">
      <root>
        <mxCell id="0" />
        <mxCell id="1" parent="0" />
        <mxCell id="NK_qWaExx_x1D2oKrcIQ-28" value="VPC" style="points=[[0,0],[0.25,0],[0.5,0],[0.75,0],[1,0],[1,0.25],[1,0.5],[1,0.75],[1,1],[0.75,1],[0.5,1],[0.25,1],[0,1],[0,0.75],[0,0.5],[0,0.25]];outlineConnect=0;gradientColor=none;html=1;whiteSpace=wrap;fontSize=12;fontStyle=0;container=1;pointerEvents=0;collapsible=0;recursiveResize=0;shape=mxgraph.aws4.group;grIcon=mxgraph.aws4.group_vpc2;strokeColor=#8C4FFF;fillColor=none;verticalAlign=top;align=left;spacingLeft=30;fontColor=#AAB7B8;dashed=0;" parent="1" vertex="1">
          <mxGeometry x="410" y="227" width="1170" height="650" as="geometry" />
        </mxCell>
        <mxCell id="NK_qWaExx_x1D2oKrcIQ-23" value="Availability Zone A" style="fillColor=none;strokeColor=#147EBA;dashed=1;verticalAlign=top;fontStyle=0;fontColor=#147EBA;whiteSpace=wrap;html=1;movable=1;resizable=1;rotatable=1;deletable=1;editable=1;locked=0;connectable=1;" parent="1" vertex="1">
          <mxGeometry x="610" y="197" width="950" height="700" as="geometry" />
        </mxCell>
        <mxCell id="VmS78MKHTBp1I5BOGmcO-28" value="Private subnet" style="points=[[0,0],[0.25,0],[0.5,0],[0.75,0],[1,0],[1,0.25],[1,0.5],[1,0.75],[1,1],[0.75,1],[0.5,1],[0.25,1],[0,1],[0,0.75],[0,0.5],[0,0.25]];outlineConnect=0;gradientColor=none;html=1;whiteSpace=wrap;fontSize=12;fontStyle=0;container=0;pointerEvents=0;collapsible=0;recursiveResize=0;shape=mxgraph.aws4.group;grIcon=mxgraph.aws4.group_security_group;grStroke=0;strokeColor=#00A4A6;fillColor=#E6F6F7;verticalAlign=top;align=left;spacingLeft=30;fontColor=#147EBA;dashed=0;" parent="1" vertex="1">
          <mxGeometry x="875" y="241" width="640" height="630" as="geometry" />
        </mxCell>
        <mxCell id="VmS78MKHTBp1I5BOGmcO-27" value="Public subnet" style="points=[[0,0],[0.25,0],[0.5,0],[0.75,0],[1,0],[1,0.25],[1,0.5],[1,0.75],[1,1],[0.75,1],[0.5,1],[0.25,1],[0,1],[0,0.75],[0,0.5],[0,0.25]];outlineConnect=0;gradientColor=none;html=1;whiteSpace=wrap;fontSize=12;fontStyle=0;container=0;pointerEvents=0;collapsible=0;recursiveResize=0;shape=mxgraph.aws4.group;grIcon=mxgraph.aws4.group_security_group;grStroke=0;strokeColor=#7AA116;fillColor=#F2F6E8;verticalAlign=top;align=left;spacingLeft=30;fontColor=#248814;dashed=0;" parent="1" vertex="1">
          <mxGeometry x="630" y="241" width="223.5" height="630" as="geometry" />
        </mxCell>
        <mxCell id="-QjtrjUzRDEMRZ5MF8oH-47" value="Serverless hosting of Moodle LMS on AWS using Fargate" style="text;html=1;resizable=0;points=[];autosize=1;align=left;verticalAlign=top;spacingTop=-4;fontSize=30;fontStyle=1;labelBackgroundColor=none;" parent="1" vertex="1">
          <mxGeometry x="36.5" y="26.5" width="840" height="40" as="geometry" />
        </mxCell>
        <mxCell id="SCVMTBWpLvtzJIhz15lM-1" value="" style="line;strokeWidth=2;html=1;fontSize=14;labelBackgroundColor=none;" parent="1" vertex="1">
          <mxGeometry x="32.5" y="72.5" width="1060" height="10" as="geometry" />
        </mxCell>
        <mxCell id="VmS78MKHTBp1I5BOGmcO-4" value="" style="sketch=0;outlineConnect=0;fontColor=#232F3E;gradientColor=none;fillColor=#8C4FFF;strokeColor=none;dashed=0;verticalLabelPosition=bottom;verticalAlign=top;align=center;html=1;fontSize=12;fontStyle=0;aspect=fixed;pointerEvents=1;shape=mxgraph.aws4.application_load_balancer;" parent="1" vertex="1">
          <mxGeometry x="512" y="501" width="78" height="78" as="geometry" />
        </mxCell>
        <mxCell id="VmS78MKHTBp1I5BOGmcO-11" value="" style="edgeStyle=orthogonalEdgeStyle;html=1;endArrow=block;elbow=vertical;startArrow=none;endFill=1;strokeColor=#545B64;rounded=0;" parent="1" source="VmS78MKHTBp1I5BOGmcO-4" target="VmS78MKHTBp1I5BOGmcO-7" edge="1">
          <mxGeometry width="100" relative="1" as="geometry">
            <mxPoint x="750" y="563.5185185185185" as="sourcePoint" />
            <mxPoint x="850" y="563.5" as="targetPoint" />
            <Array as="points">
              <mxPoint x="946" y="537" />
              <mxPoint x="946" y="393" />
            </Array>
          </mxGeometry>
        </mxCell>
        <mxCell id="VmS78MKHTBp1I5BOGmcO-15" style="edgeStyle=orthogonalEdgeStyle;rounded=0;orthogonalLoop=1;jettySize=auto;html=1;" parent="1" source="VmS78MKHTBp1I5BOGmcO-4" target="VmS78MKHTBp1I5BOGmcO-12" edge="1">
          <mxGeometry relative="1" as="geometry">
            <Array as="points">
              <mxPoint x="946" y="537" />
              <mxPoint x="946" y="497" />
            </Array>
            <mxPoint x="546" y="562.0000000000002" as="sourcePoint" />
          </mxGeometry>
        </mxCell>
        <mxCell id="VmS78MKHTBp1I5BOGmcO-16" style="edgeStyle=orthogonalEdgeStyle;rounded=0;orthogonalLoop=1;jettySize=auto;html=1;" parent="1" source="VmS78MKHTBp1I5BOGmcO-4" edge="1">
          <mxGeometry relative="1" as="geometry">
            <Array as="points">
              <mxPoint x="946" y="537" />
              <mxPoint x="946" y="602" />
            </Array>
            <mxPoint x="546" y="562.0000000000002" as="sourcePoint" />
            <mxPoint x="1101.5172727272727" y="602.0000000000001" as="targetPoint" />
          </mxGeometry>
        </mxCell>
        <mxCell id="VmS78MKHTBp1I5BOGmcO-17" style="edgeStyle=orthogonalEdgeStyle;rounded=0;orthogonalLoop=1;jettySize=auto;html=1;" parent="1" source="VmS78MKHTBp1I5BOGmcO-4" target="VmS78MKHTBp1I5BOGmcO-14" edge="1">
          <mxGeometry relative="1" as="geometry">
            <Array as="points">
              <mxPoint x="946" y="537" />
              <mxPoint x="946" y="707" />
            </Array>
            <mxPoint x="590" y="563.0303030303031" as="sourcePoint" />
          </mxGeometry>
        </mxCell>
        <mxCell id="jZVaUwOg5UY3L9NAnvdq-60" value="User" style="outlineConnect=0;fontColor=#232F3E;gradientColor=none;fillColor=#232F3E;strokeColor=none;dashed=0;verticalLabelPosition=bottom;verticalAlign=top;align=center;html=1;fontSize=12;fontStyle=0;aspect=fixed;pointerEvents=1;shape=mxgraph.aws4.user;labelBackgroundColor=none;" parent="1" vertex="1">
          <mxGeometry x="70" y="501" width="78" height="78" as="geometry" />
        </mxCell>
        <mxCell id="NK_qWaExx_x1D2oKrcIQ-9" style="edgeStyle=orthogonalEdgeStyle;rounded=0;orthogonalLoop=1;jettySize=auto;html=1;" parent="1" edge="1">
          <mxGeometry relative="1" as="geometry">
            <mxPoint x="1245.9999999999995" y="531" as="sourcePoint" />
            <mxPoint x="1396.8747065727703" y="443.0000000000001" as="targetPoint" />
            <Array as="points">
              <mxPoint x="1322" y="531" />
              <mxPoint x="1322" y="443" />
            </Array>
          </mxGeometry>
        </mxCell>
        <mxCell id="NK_qWaExx_x1D2oKrcIQ-12" value="" style="group;movable=1;resizable=1;rotatable=1;deletable=1;editable=1;locked=0;connectable=1;" parent="1" vertex="1" connectable="0">
          <mxGeometry x="905" y="251" width="356.55999999999995" height="768" as="geometry" />
        </mxCell>
        <mxCell id="VmS78MKHTBp1I5BOGmcO-35" value="" style="verticalLabelPosition=bottom;verticalAlign=top;html=1;shape=mxgraph.basic.rect;fillColor2=none;strokeWidth=1;size=20;indent=5;strokeColor=#FF9933;fillColor=none;" parent="NK_qWaExx_x1D2oKrcIQ-12" vertex="1">
          <mxGeometry x="100" y="40" width="240" height="472" as="geometry" />
        </mxCell>
        <mxCell id="VmS78MKHTBp1I5BOGmcO-6" value="" style="sketch=0;points=[[0,0,0],[0.25,0,0],[0.5,0,0],[0.75,0,0],[1,0,0],[0,1,0],[0.25,1,0],[0.5,1,0],[0.75,1,0],[1,1,0],[0,0.25,0],[0,0.5,0],[0,0.75,0],[1,0.25,0],[1,0.5,0],[1,0.75,0]];outlineConnect=0;fontColor=#232F3E;fillColor=#ED7100;strokeColor=#ffffff;dashed=0;verticalLabelPosition=bottom;verticalAlign=top;align=center;html=1;fontSize=12;fontStyle=0;aspect=fixed;shape=mxgraph.aws4.resourceIcon;resIcon=mxgraph.aws4.ecr;" parent="NK_qWaExx_x1D2oKrcIQ-12" vertex="1">
          <mxGeometry y="661" width="78" height="78" as="geometry" />
        </mxCell>
        <mxCell id="VmS78MKHTBp1I5BOGmcO-30" value="" style="group" parent="NK_qWaExx_x1D2oKrcIQ-12" vertex="1" connectable="0">
          <mxGeometry x="119" width="200" height="610" as="geometry" />
        </mxCell>
        <mxCell id="VmS78MKHTBp1I5BOGmcO-9" value="" style="verticalLabelPosition=bottom;verticalAlign=top;html=1;shape=mxgraph.basic.rect;fillColor2=none;strokeWidth=1;size=20;indent=5;strokeColor=#FF99CC;fillColor=none;dashed=1;dashPattern=8 8;" parent="VmS78MKHTBp1I5BOGmcO-30" vertex="1">
          <mxGeometry x="1.65" width="198.35" height="570" as="geometry" />
        </mxCell>
        <mxCell id="VmS78MKHTBp1I5BOGmcO-5" value="" style="sketch=0;points=[[0,0,0],[0.25,0,0],[0.5,0,0],[0.75,0,0],[1,0,0],[0,1,0],[0.25,1,0],[0.5,1,0],[0.75,1,0],[1,1,0],[0,0.25,0],[0,0.5,0],[0,0.75,0],[1,0.25,0],[1,0.5,0],[1,0.75,0]];outlineConnect=0;fontColor=#232F3E;fillColor=#FF66B3;strokeColor=#ffffff;dashed=0;verticalLabelPosition=bottom;verticalAlign=top;align=center;html=1;fontSize=12;fontStyle=0;aspect=fixed;shape=mxgraph.aws4.resourceIcon;resIcon=mxgraph.aws4.fargate;" parent="VmS78MKHTBp1I5BOGmcO-30" vertex="1">
          <mxGeometry x="71.84" y="546" width="47.9" height="47.9" as="geometry" />
        </mxCell>
        <mxCell id="VmS78MKHTBp1I5BOGmcO-12" value="" style="sketch=0;outlineConnect=0;fontColor=#232F3E;gradientColor=none;fillColor=#ff66b3;strokeColor=none;dashed=0;verticalLabelPosition=bottom;verticalAlign=top;align=center;html=1;fontSize=12;fontStyle=0;aspect=fixed;pointerEvents=1;shape=mxgraph.aws4.ecs_task;" parent="VmS78MKHTBp1I5BOGmcO-30" vertex="1">
          <mxGeometry x="77.28999999999996" y="221.82758620689654" width="37" height="48" as="geometry" />
        </mxCell>
        <mxCell id="VmS78MKHTBp1I5BOGmcO-7" value="" style="sketch=0;outlineConnect=0;fontColor=#232F3E;gradientColor=none;fillColor=#ff66b3;strokeColor=none;dashed=0;verticalLabelPosition=bottom;verticalAlign=top;align=center;html=1;fontSize=12;fontStyle=0;aspect=fixed;pointerEvents=1;shape=mxgraph.aws4.ecs_task;" parent="VmS78MKHTBp1I5BOGmcO-30" vertex="1">
          <mxGeometry x="77.28999999999996" y="116.65517241379308" width="37" height="48" as="geometry" />
        </mxCell>
        <mxCell id="VmS78MKHTBp1I5BOGmcO-14" value="" style="sketch=0;outlineConnect=0;fontColor=#232F3E;gradientColor=none;fillColor=#ff66b3;strokeColor=none;dashed=0;verticalLabelPosition=bottom;verticalAlign=top;align=center;html=1;fontSize=12;fontStyle=0;aspect=fixed;pointerEvents=1;shape=mxgraph.aws4.ecs_task;" parent="VmS78MKHTBp1I5BOGmcO-30" vertex="1">
          <mxGeometry x="77.28999999999996" y="432.1724137931034" width="37" height="48" as="geometry" />
        </mxCell>
        <mxCell id="VmS78MKHTBp1I5BOGmcO-13" value="" style="sketch=0;outlineConnect=0;fontColor=#232F3E;gradientColor=none;fillColor=#ff66b3;strokeColor=none;dashed=0;verticalLabelPosition=bottom;verticalAlign=top;align=center;html=1;fontSize=12;fontStyle=0;aspect=fixed;pointerEvents=1;shape=mxgraph.aws4.ecs_task;" parent="VmS78MKHTBp1I5BOGmcO-30" vertex="1">
          <mxGeometry x="77.28999999999996" y="325.99999999999994" width="37" height="48" as="geometry" />
        </mxCell>
        <mxCell id="VmS78MKHTBp1I5BOGmcO-8" value="" style="sketch=0;points=[[0,0,0],[0.25,0,0],[0.5,0,0],[0.75,0,0],[1,0,0],[0,1,0],[0.25,1,0],[0.5,1,0],[0.75,1,0],[1,1,0],[0,0.25,0],[0,0.5,0],[0,0.75,0],[1,0.25,0],[1,0.5,0],[1,0.75,0]];outlineConnect=0;fontColor=#232F3E;fillColor=#ED7100;strokeColor=#ffffff;dashed=0;verticalLabelPosition=bottom;verticalAlign=top;align=center;html=1;fontSize=12;fontStyle=0;aspect=fixed;shape=mxgraph.aws4.resourceIcon;resIcon=mxgraph.aws4.ecs;" parent="VmS78MKHTBp1I5BOGmcO-30" vertex="1">
          <mxGeometry x="68.12" y="6" width="55.34" height="55.34" as="geometry" />
        </mxCell>
        <mxCell id="NK_qWaExx_x1D2oKrcIQ-11" value="Amazon ECS Service" style="text;whiteSpace=wrap;fillColor=none;align=center;" parent="VmS78MKHTBp1I5BOGmcO-30" vertex="1">
          <mxGeometry x="30.83000000000004" y="61.34" width="140" height="22" as="geometry" />
        </mxCell>
        <mxCell id="NK_qWaExx_x1D2oKrcIQ-31" value="AWS Fargate" style="text;whiteSpace=wrap;fillColor=none;align=center;" parent="VmS78MKHTBp1I5BOGmcO-30" vertex="1">
          <mxGeometry x="25.789999999999885" y="593.9" width="140" height="22" as="geometry" />
        </mxCell>
        <mxCell id="NK_qWaExx_x1D2oKrcIQ-10" style="edgeStyle=orthogonalEdgeStyle;rounded=0;orthogonalLoop=1;jettySize=auto;html=1;entryX=0;entryY=0.922;entryDx=0;entryDy=0;entryPerimeter=0;" parent="NK_qWaExx_x1D2oKrcIQ-12" source="VmS78MKHTBp1I5BOGmcO-6" target="VmS78MKHTBp1I5BOGmcO-35" edge="1">
          <mxGeometry relative="1" as="geometry">
            <Array as="points">
              <mxPoint x="39" y="476" />
            </Array>
          </mxGeometry>
        </mxCell>
        <mxCell id="SaEmiz7aeY9OLmT3vD5Z-14" value="ECS" style="text;whiteSpace=wrap;fillColor=none;align=center;verticalAlign=middle;" vertex="1" parent="NK_qWaExx_x1D2oKrcIQ-12">
          <mxGeometry x="-16" y="746" width="110" height="22" as="geometry" />
        </mxCell>
        <mxCell id="NK_qWaExx_x1D2oKrcIQ-17" value="" style="sketch=0;outlineConnect=0;fontColor=#232F3E;gradientColor=none;fillColor=#8C4FFF;strokeColor=none;dashed=0;verticalLabelPosition=bottom;verticalAlign=top;align=center;html=1;fontSize=12;fontStyle=0;aspect=fixed;pointerEvents=1;shape=mxgraph.aws4.nat_gateway;" parent="1" vertex="1">
          <mxGeometry x="710.25" y="371" width="78" height="78" as="geometry" />
        </mxCell>
        <mxCell id="NK_qWaExx_x1D2oKrcIQ-18" value="" style="group" parent="1" vertex="1" connectable="0">
          <mxGeometry x="1322" y="408" width="185" height="290" as="geometry" />
        </mxCell>
        <mxCell id="8" value="ElastiCache Redis" style="text;whiteSpace=wrap;fillColor=none;align=center;verticalAlign=middle;" parent="NK_qWaExx_x1D2oKrcIQ-18" vertex="1">
          <mxGeometry x="60" y="71.5" width="110" height="22" as="geometry" />
        </mxCell>
        <mxCell id="VmS78MKHTBp1I5BOGmcO-18" value="" style="sketch=0;points=[[0,0,0],[0.25,0,0],[0.5,0,0],[0.75,0,0],[1,0,0],[0,1,0],[0.25,1,0],[0.5,1,0],[0.75,1,0],[1,1,0],[0,0.25,0],[0,0.5,0],[0,0.75,0],[1,0.25,0],[1,0.5,0],[1,0.75,0]];outlineConnect=0;fontColor=#232F3E;fillColor=#C925D1;strokeColor=#ffffff;dashed=0;verticalLabelPosition=bottom;verticalAlign=top;align=center;html=1;fontSize=12;fontStyle=0;aspect=fixed;shape=mxgraph.aws4.resourceIcon;resIcon=mxgraph.aws4.rds;" parent="NK_qWaExx_x1D2oKrcIQ-18" vertex="1">
          <mxGeometry x="76" y="187" width="78" height="78" as="geometry" />
        </mxCell>
        <mxCell id="VmS78MKHTBp1I5BOGmcO-19" value="" style="sketch=0;outlineConnect=0;fontColor=#232F3E;gradientColor=none;fillColor=#C925D1;strokeColor=none;dashed=0;verticalLabelPosition=bottom;verticalAlign=top;align=center;html=1;fontSize=12;fontStyle=0;aspect=fixed;pointerEvents=1;shape=mxgraph.aws4.elasticache_for_redis;" parent="NK_qWaExx_x1D2oKrcIQ-18" vertex="1">
          <mxGeometry x="76" width="78" height="69" as="geometry" />
        </mxCell>
        <mxCell id="VmS78MKHTBp1I5BOGmcO-26" style="edgeStyle=orthogonalEdgeStyle;rounded=0;orthogonalLoop=1;jettySize=auto;html=1;entryX=0;entryY=0.5;entryDx=0;entryDy=0;entryPerimeter=0;" parent="NK_qWaExx_x1D2oKrcIQ-18" source="VmS78MKHTBp1I5BOGmcO-19" target="VmS78MKHTBp1I5BOGmcO-18" edge="1">
          <mxGeometry relative="1" as="geometry">
            <Array as="points">
              <mxPoint y="35" />
              <mxPoint y="226" />
            </Array>
          </mxGeometry>
        </mxCell>
        <mxCell id="NK_qWaExx_x1D2oKrcIQ-15" value="Amazon RDS" style="text;whiteSpace=wrap;fillColor=none;align=center;" parent="NK_qWaExx_x1D2oKrcIQ-18" vertex="1">
          <mxGeometry x="45" y="268" width="140" height="22" as="geometry" />
        </mxCell>
        <mxCell id="NK_qWaExx_x1D2oKrcIQ-22" style="edgeStyle=orthogonalEdgeStyle;rounded=0;orthogonalLoop=1;jettySize=auto;html=1;" parent="1" source="NK_qWaExx_x1D2oKrcIQ-20" target="VmS78MKHTBp1I5BOGmcO-4" edge="1">
          <mxGeometry relative="1" as="geometry" />
        </mxCell>
        <mxCell id="NK_qWaExx_x1D2oKrcIQ-20" value="" style="sketch=0;points=[[0,0,0],[0.25,0,0],[0.5,0,0],[0.75,0,0],[1,0,0],[0,1,0],[0.25,1,0],[0.5,1,0],[0.75,1,0],[1,1,0],[0,0.25,0],[0,0.5,0],[0,0.75,0],[1,0.25,0],[1,0.5,0],[1,0.75,0]];outlineConnect=0;fontColor=#232F3E;fillColor=#8C4FFF;strokeColor=#ffffff;dashed=0;verticalLabelPosition=bottom;verticalAlign=top;align=center;html=1;fontSize=12;fontStyle=0;aspect=fixed;shape=mxgraph.aws4.resourceIcon;resIcon=mxgraph.aws4.cloudfront;" parent="1" vertex="1">
          <mxGeometry x="235" y="501" width="78" height="78" as="geometry" />
        </mxCell>
        <mxCell id="NK_qWaExx_x1D2oKrcIQ-21" style="edgeStyle=orthogonalEdgeStyle;rounded=0;orthogonalLoop=1;jettySize=auto;html=1;entryX=0;entryY=0.5;entryDx=0;entryDy=0;entryPerimeter=0;" parent="1" source="jZVaUwOg5UY3L9NAnvdq-60" target="NK_qWaExx_x1D2oKrcIQ-20" edge="1">
          <mxGeometry relative="1" as="geometry" />
        </mxCell>
        <mxCell id="NK_qWaExx_x1D2oKrcIQ-16" value="" style="sketch=0;outlineConnect=0;fontColor=#232F3E;gradientColor=none;fillColor=#8C4FFF;strokeColor=none;dashed=0;verticalLabelPosition=bottom;verticalAlign=top;align=center;html=1;fontSize=12;fontStyle=0;aspect=fixed;pointerEvents=1;shape=mxgraph.aws4.internet_gateway;" parent="1" vertex="1">
          <mxGeometry x="375" y="501" width="78" height="78" as="geometry" />
        </mxCell>
        <mxCell id="NK_qWaExx_x1D2oKrcIQ-29" value="Region" style="points=[[0,0],[0.25,0],[0.5,0],[0.75,0],[1,0],[1,0.25],[1,0.5],[1,0.75],[1,1],[0.75,1],[0.5,1],[0.25,1],[0,1],[0,0.75],[0,0.5],[0,0.25]];outlineConnect=0;gradientColor=none;html=1;whiteSpace=wrap;fontSize=12;fontStyle=0;container=1;pointerEvents=0;collapsible=0;recursiveResize=0;shape=mxgraph.aws4.group;grIcon=mxgraph.aws4.group_region;strokeColor=#00A4A6;fillColor=none;verticalAlign=top;align=left;spacingLeft=30;fontColor=#147EBA;dashed=1;" parent="1" vertex="1">
          <mxGeometry x="340" y="167" width="1260" height="870" as="geometry" />
        </mxCell>
        <mxCell id="NK_qWaExx_x1D2oKrcIQ-27" value="" style="sketch=0;points=[[0,0,0],[0.25,0,0],[0.5,0,0],[0.75,0,0],[1,0,0],[0,1,0],[0.25,1,0],[0.5,1,0],[0.75,1,0],[1,1,0],[0,0.25,0],[0,0.5,0],[0,0.75,0],[1,0.25,0],[1,0.5,0],[1,0.75,0]];points=[[0,0,0],[0.25,0,0],[0.5,0,0],[0.75,0,0],[1,0,0],[0,1,0],[0.25,1,0],[0.5,1,0],[0.75,1,0],[1,1,0],[0,0.25,0],[0,0.5,0],[0,0.75,0],[1,0.25,0],[1,0.5,0],[1,0.75,0]];outlineConnect=0;fontColor=#232F3E;fillColor=#E7157B;strokeColor=#ffffff;dashed=0;verticalLabelPosition=bottom;verticalAlign=top;align=center;html=1;fontSize=12;fontStyle=0;aspect=fixed;shape=mxgraph.aws4.resourceIcon;resIcon=mxgraph.aws4.cloudwatch_2;" parent="NK_qWaExx_x1D2oKrcIQ-29" vertex="1">
          <mxGeometry x="430" y="744" width="78" height="78" as="geometry" />
        </mxCell>
        <mxCell id="NK_qWaExx_x1D2oKrcIQ-24" value="" style="sketch=0;points=[[0,0,0],[0.25,0,0],[0.5,0,0],[0.75,0,0],[1,0,0],[0,1,0],[0.25,1,0],[0.5,1,0],[0.75,1,0],[1,1,0],[0,0.25,0],[0,0.5,0],[0,0.75,0],[1,0.25,0],[1,0.5,0],[1,0.75,0]];outlineConnect=0;fontColor=#232F3E;fillColor=#DD344C;strokeColor=#ffffff;dashed=0;verticalLabelPosition=bottom;verticalAlign=top;align=center;html=1;fontSize=12;fontStyle=0;aspect=fixed;shape=mxgraph.aws4.resourceIcon;resIcon=mxgraph.aws4.certificate_manager_3;" parent="NK_qWaExx_x1D2oKrcIQ-29" vertex="1">
          <mxGeometry x="294" y="744" width="78" height="78" as="geometry" />
        </mxCell>
        <mxCell id="NK_qWaExx_x1D2oKrcIQ-14" value="Fargate Tasks" style="text;whiteSpace=wrap;fillColor=none;align=center;rotation=-90;" parent="NK_qWaExx_x1D2oKrcIQ-29" vertex="1">
          <mxGeometry x="744" y="330" width="140" height="22" as="geometry" />
        </mxCell>
        <mxCell id="NK_qWaExx_x1D2oKrcIQ-32" value="" style="sketch=0;points=[[0,0,0],[0.25,0,0],[0.5,0,0],[0.75,0,0],[1,0,0],[0,1,0],[0.25,1,0],[0.5,1,0],[0.75,1,0],[1,1,0],[0,0.25,0],[0,0.5,0],[0,0.75,0],[1,0.25,0],[1,0.5,0],[1,0.75,0]];outlineConnect=0;fontColor=#232F3E;fillColor=#7AA116;strokeColor=#ffffff;dashed=0;verticalLabelPosition=bottom;verticalAlign=top;align=center;html=1;fontSize=12;fontStyle=0;aspect=fixed;shape=mxgraph.aws4.resourceIcon;resIcon=mxgraph.aws4.elastic_file_system;" parent="NK_qWaExx_x1D2oKrcIQ-29" vertex="1">
          <mxGeometry x="905" y="744" width="78" height="78" as="geometry" />
        </mxCell>
        <mxCell id="SaEmiz7aeY9OLmT3vD5Z-10" value="Internet Gateway" style="text;whiteSpace=wrap;fillColor=none;align=center;verticalAlign=middle;" vertex="1" parent="NK_qWaExx_x1D2oKrcIQ-29">
          <mxGeometry x="20" y="410" width="110" height="22" as="geometry" />
        </mxCell>
        <mxCell id="SaEmiz7aeY9OLmT3vD5Z-11" value="Application Load Balancer" style="text;whiteSpace=wrap;fillColor=none;align=center;verticalAlign=middle;" vertex="1" parent="NK_qWaExx_x1D2oKrcIQ-29">
          <mxGeometry x="160" y="410" width="110" height="40" as="geometry" />
        </mxCell>
        <mxCell id="SaEmiz7aeY9OLmT3vD5Z-12" value="ACM" style="text;whiteSpace=wrap;fillColor=none;align=center;verticalAlign=middle;" vertex="1" parent="NK_qWaExx_x1D2oKrcIQ-29">
          <mxGeometry x="278" y="830" width="110" height="22" as="geometry" />
        </mxCell>
        <mxCell id="SaEmiz7aeY9OLmT3vD5Z-13" value="CloudWatch" style="text;whiteSpace=wrap;fillColor=none;align=center;verticalAlign=middle;" vertex="1" parent="NK_qWaExx_x1D2oKrcIQ-29">
          <mxGeometry x="417" y="830" width="110" height="22" as="geometry" />
        </mxCell>
        <mxCell id="SaEmiz7aeY9OLmT3vD5Z-30" value="ECS" style="text;whiteSpace=wrap;fillColor=none;align=center;verticalAlign=middle;" vertex="1" parent="NK_qWaExx_x1D2oKrcIQ-29">
          <mxGeometry x="889" y="830" width="110" height="22" as="geometry" />
        </mxCell>
        <mxCell id="NK_qWaExx_x1D2oKrcIQ-38" style="edgeStyle=orthogonalEdgeStyle;rounded=0;orthogonalLoop=1;jettySize=auto;html=1;entryX=1;entryY=0.919;entryDx=0;entryDy=0;entryPerimeter=0;" parent="1" source="NK_qWaExx_x1D2oKrcIQ-32" target="VmS78MKHTBp1I5BOGmcO-35" edge="1">
          <mxGeometry relative="1" as="geometry" />
        </mxCell>
        <mxCell id="SaEmiz7aeY9OLmT3vD5Z-8" value="CloudFront" style="text;whiteSpace=wrap;fillColor=none;align=center;verticalAlign=middle;" vertex="1" parent="1">
          <mxGeometry x="219" y="579" width="110" height="22" as="geometry" />
        </mxCell>
        <mxCell id="SaEmiz7aeY9OLmT3vD5Z-9" value="NAT Gateway" style="text;whiteSpace=wrap;fillColor=none;align=center;verticalAlign=middle;" vertex="1" parent="1">
          <mxGeometry x="694.25" y="449" width="110" height="22" as="geometry" />
        </mxCell>
      </root>
    </mxGraphModel>
  </diagram>
</mxfile>
